<svg xmlns="http://www.w3.org/2000/svg" viewBox="0 0 192 192" xmlns:v="https://vecta.io/nano"><path d="M114.43 97V71a9.42 9.42 0 0 0-9.43-9.45h-1A9.43 9.43 0 0 0 94.58 71v27.42h19.85zm28.36 2.37V19.92a9.42 9.42 0 0 0-9.41-9.41h-1a9.42 9.42 0 0 0-9.41 9.41v78.5h12.73a26.72 26.72 0 0 1 7.09.95zm-67.15 10.39h.51a10.12 10.12 0 0 0 4.26-.94v-.11-10.29h5.67V71a9.42 9.42 0 0 0-9.41-9.42h-1A9.43 9.43 0 0 0 66.22 71v29.37a9.43 9.43 0 0 0 9.42 9.39zm60.06-2.84H88.91v1.79a12.41 12.41 0 0 0 12.4 12.39h27.3v25.53h-26.94a18.45 18.45 0 0 0-18.43 18.43 4.26 4.26 0 0 1-8.51 0 27 27 0 0 1 26.94-26.94h18.44v-8.51h-18.8a20.93 20.93 0 0 1-19.07-12.37 18.63 18.63 0 0 1-6.09 1h-.51a17.94 17.94 0 0 1-17.35-13.5 4.26 4.26 0 0 1-.57-2.1v-65.7a9.44 9.44 0 0 0-9.42-9.42h-1a9.44 9.44 0 0 0-9.42 9.42v122.14a54.33 54.33 0 0 0 5.72 24.41h104.34a57.35 57.35 0 0 0 6.19-25.83v-32.3a18.45 18.45 0 0 0-18.43-18.44z" fill="#fff"/><path d="M162.64 187.75h0a4.25 4.25 0 0 0-4.25-4.25h-1a65.85 65.85 0 0 0 5.3-25.83v-32.32a26.94 26.94 0 0 0-11.41-22 3.84 3.84 0 0 0 .07-.69V19.92A17.94 17.94 0 0 0 133.4 2h-1.07a17.94 17.94 0 0 0-17.9 17.92v35.83A17.72 17.72 0 0 0 105 53h-1a17.89 17.89 0 0 0-13.67 6.4A17.9 17.9 0 0 0 76.66 53h-1a17.72 17.72 0 0 0-9.42 2.71V36.94A17.94 17.94 0 0 0 48.3 19h-1a17.94 17.94 0 0 0-17.94 17.94v122.14a62.83 62.83 0 0 0 4.88 24.41h-.63a4.26 4.26 0 0 0 0 8.51H158.4a4.24 4.24 0 0 0 4.24-4.25zM122.94 97V19.92a9.42 9.42 0 0 1 9.41-9.41h1a9.42 9.42 0 0 1 9.41 9.41v79.45a26.72 26.72 0 0 0-7.09-1h-12.73zm-28.36 0V71a9.43 9.43 0 0 1 9.42-9.45h1a9.42 9.42 0 0 1 9.43 9.45v27.42H94.58zM66.22 71a9.43 9.43 0 0 1 9.42-9.42h1A9.42 9.42 0 0 1 86.07 71v27.42H80.4v10.29.11a10.12 10.12 0 0 1-4.26.94h-.51a9.43 9.43 0 0 1-9.42-9.42zm87.91 86.69a57.35 57.35 0 0 1-6.19 25.83H43.58a54.33 54.33 0 0 1-5.72-24.41V36.94a9.44 9.44 0 0 1 9.42-9.42h1a9.44 9.44 0 0 1 9.42 9.42v65.73a4.26 4.26 0 0 0 .57 2.1 17.94 17.94 0 0 0 17.35 13.5h.51a18.63 18.63 0 0 0 6.09-1 20.93 20.93 0 0 0 19.07 12.37h18.8v8.51h-18.42a27 27 0 0 0-26.94 26.94 4.26 4.26 0 0 0 8.51 0 18.45 18.45 0 0 1 18.43-18.43h26.94V121.1h-27.3a12.41 12.41 0 0 1-12.4-12.39v-1.79h46.79a18.45 18.45 0 0 1 18.43 18.44z" fill="#da291c"/></svg>